#!OML:ASF E:\inclinewalkrobotboard\Project 1\Capture day 1\Session 1\subject1.ASF
:FULLY-SPECIFIED
:DEGREES
257
root 12.1773 17.6356 13.374 -165.693 1.08922 167.435
lowerback -3.50893 -1.07801 -3.87465
upperback 2.38251 -1.54591 4.17502
thorax 4.67063 -1.02864 6.43386
lowerneck -6.21697 -1.88649 -2.56654
upperneck 27.0678 0.957881 -2.97969
head 9.57317 0.734894 -0.353131
rclavicle -1.66979e-014 -1.52667e-013
rhumerus -18.1205 -38.7949 -64.2104
rradius 13.9514
rwrist 39.9966
rhand -12.7813 -38.4987
rfingers 7.12502
rthumb 13.304 -68.054
lclavicle -1.66979e-014 -1.52667e-013
lhumerus -31.7738 -4.12297 82.8149
lradius 21.3264
lwrist -23.1825
lhand -25.0773 -23.4716
lfingers 7.12502
lthumb 1.43692 6.50332
rfemur -12.923 7.87814 2.24306
rtibia 8.07384
rfoot -12.175 -6.22372
rtoes -30.5094
lfemur -15.8553 -11.2842 -11.8616
ltibia 11.4055
lfoot -16.3019 4.48288
ltoes -63.8567
258
root 12.185 17.6287 13.2622 -166.286 1.34637 167.483
lowerback -3.43806 -0.73134 -4.03785
upperback 2.5818 -1.0723 4.086
thorax 4.77332 -0.804068 6.47189
lowerneck -6.3269 -1.9594 -2.64239
upperneck 27.2742 0.917934 -2.93178
head 9.66901 0.726817 -0.32457
rclavicle 4.77083e-015 4.45278e-014
rhumerus -16.3583 -37.4748 -65.9691
rradius 14.099
rwrist 38.7477
rhand -12.6152 -38.0286
rfingers 7.12502
rthumb 13.4641 -67.5735
lclavicle 4.77083e-015 4.45278e-014
lhumerus -32.6589 -2.34827 81.8487
lradius 20.4306
lwrist -24.2056
lhand -25.2569 -24.0724
lfingers 7.12502
lthumb 1.26344 5.90358
rfemur -11.8664 7.95831 2.54221
rtibia 7.99144
rfoot -12.5512 -5.88441
rtoes -30.6729
lfemur -16.282 -11.1337 -11.789
ltibia 11.4522
lfoot -15.9374 4.54315
ltoes -63.4304
259
root 12.1818 17.6138 13.155 -166.446 1.34507 167.533
lowerback -3.66389 -0.515186 -3.87799
upperback 2.57372 -0.760268 3.85619
thorax 4.84085 -0.633519 6.15889
lowerneck -6.2565 -2.0298 -2.78141
upperneck 27.4149 0.827923 -2.6845
head 9.70556 0.712793 -0.22081
rclavicle -9.54166e-015 -6.36111e-015
rhumerus -14.9334 -36.5354 -67.6612
rradius 14.1619
rwrist 38.1656
rhand -12.4476 -37.5665
rfingers 7.12502
rthumb 13.6257 -67.1005
lclavicle -9.54166e-015 -6.36111e-015
lhumerus -33.7084 -0.412784 80.5496
lradius 19.5521
lwrist -25.4722
lhand -24.9482 -23.9455
lfingers 7.12502
lthumb 1.56155 6.02855
rfemur -11.2378 7.84553 2.71759
rtibia 7.99113
rfoot -12.9438 -5.785
rtoes -30.8523
lfemur -17.4389 -11.1185 -11.5661
ltibia 11.767
lfoot -15.5801 4.66927
ltoes -63.1518
260
root 12.1865 17.6117 13.047 -167.046 1.58026 167.791
lowerback -3.3522 -0.348789 -3.73098
upperback 2.6561 -0.301356 3.68868
thorax 4.68931 -0.291339 5.93933
lowerneck -6.32746 -2.08202 -2.71363
upperneck 27.7162 0.819844 -2.65199
head 9.82806 0.738269 -0.217738
rclavicle -2.14687e-014 -2.22639e-014
rhumerus -13.7625 -35.1868 -69.2365
rradius 14.2365
rwrist 37.445
rhand -12.3036 -37.1964
rfingers 7.12502
rthumb 13.7644 -66.7211
lclavicle -2.14687e-014 -2.22639e-014
lhumerus -34.8792 1.60509 79.1345
lradius 18.7726
lwrist -26.7558
lhand -24.5663 -23.8111
lfingers 7.12502
lthumb 1.93046 6.15992
rfemur -10.1943 8.19813 3.25032
rtibia 7.94235
rfoot -13.3446 -5.74628
rtoes -30.7578
lfemur -17.872 -10.9205 -11.223
ltibia 11.8356
lfoot -15.2419 4.84203
ltoes -62.989
261
root 12.1795 17.6011 12.9348 -167.358 1.75771 168.044
lowerback -3.40691 -0.0260374 -3.52448
upperback 2.66143 0.121079 3.49554
thorax 4.66804 -0.0730677 5.64678
lowerneck -6.84183 -2.10647 -2.12422
upperneck 28.3164 0.924354 -3.03572
head 10.1464 0.822948 -0.438062
rclavicle -4.77083e-015 -3.18055e-015
rhumerus -12.8587 -33.6994 -70.6688
rradius 14.4399
rwrist 36.8848
rhand -11.8743 -37.3249
rfingers 7.12502
rthumb 14.1782 -66.8211
lclavicle -4.77083e-015 -3.18055e-015
lhumerus -35.9997 3.46683 77.651
lradius 18.0785
lwrist -27.6518
lhand -23.8634 -23.6577
lfingers 7.12502
lthumb 2.6093 6.30613
rfemur -9.45302 8.23504 3.68132
rtibia 7.93757
rfoot -13.7769 -5.59301
rtoes -30.6249
lfemur -18.6325 -10.6825 -10.8564
ltibia 11.9111
lfoot -14.9406 4.93901
ltoes -62.859
262
root 12.1636 17.586 12.8207 -167.596 1.88821 168.202
lowerback -3.55888 0.296051 -3.40305
upperback 2.69758 0.548392 3.26975
thorax 4.73996 0.14123 5.37177
lowerneck -6.49682 0.899534 -2.77397
upperneck 28.2876 -0.448868 -1.45655
head 10.0354 -1.56466 -0.240846
rclavicle 4.77083e-015 4.13472e-014
rhumerus -12.004 -32.9833 -71.9779
rradius 14.5372
rwrist 36.9994
rhand -11.7188 -37.4815
rfingers 7.12502
rthumb 14.328 -66.9671
lclavicle 4.77083e-015 4.13472e-014
lhumerus -36.8711 5.53434 75.9654
lradius 17.1774
lwrist -28.7887
lhand -23.3587 -23.4256
lfingers 7.12502
lthumb 3.09671 6.53163
rfemur -8.75868 8.15055 3.9543
rtibia 7.90506
rfoot -14.1564 -5.46071
rtoes -30.4757
lfemur -19.4531 -10.5072 -10.6269
ltibia 11.9428
lfoot -14.7267 5.05647
ltoes -62.6377
